<svg version="1.1" xmlns="http://www.w3.org/2000/svg" xmlns:xlink="http://www.w3.org/1999/xlink" x="0px" y="0px"
	 viewBox="0 0 217.6 187.8" style="enable-background:new 0 0 217.6 187.8;" xml:space="preserve">
<g id="Layer_1">
	<g>
		<g>
			<path style="fill:#1DC6E7;" d="M77.5,162.5c34.4,7.7,70.1,7.7,104.5,0c19.9-5.2,35.6-28.3,35.6-47.2c0-13.4,0-26.8,0-40.2
				c0-18.9-15.7-42-35.6-47.2c-34.4-7.7-70.1-7.7-104.5,0C57.6,33,41.9,56.1,41.9,75c0,13.4,0,26.8,0,40.2
				C41.9,134.2,57.6,157.3,77.5,162.5z"/>
			<path style="fill:#1DC6E7;" d="M190.6,137.2l10.7,40.5c1.8,6.6-5.1,12.2-11.3,9.2l-50-25c-6.2-3.1-5.8-12,0.6-14.5l39.3-15.5
				C184.4,130.1,189.4,132.6,190.6,137.2z"/>
		</g>
		<g>
			<path style="fill:#1DE8B8;" d="M140.1,140.4c-34.4,7.7-70.1,7.7-104.5,0C15.7,135.2,0,112.2,0,93.2C0,79.8,0,66.4,0,53
				C0,34,15.7,11,35.6,5.8c34.4-7.7,70.1-7.7,104.5,0C160,11,175.7,34,175.7,53c0,13.4,0,26.8,0,40.2
				C175.7,112.2,160,135.2,140.1,140.4z"/>
			<path style="fill:#1DE8B8;" d="M27,115.2l-10.7,40.5c-1.8,6.6,5.1,12.2,11.3,9.2l50-25c6.2-3.1,5.8-12-0.6-14.5l-39.3-15.5
				C33.2,108,28.3,110.5,27,115.2z"/>
		</g>
		<g>
			<path style="fill:#FFFFFF;" d="M54.5,72.5c0,3.8-3.1,6.9-6.9,6.9c-3.8,0-6.9-3.1-6.9-6.9c0-3.8,3.1-6.9,6.9-6.9
				C51.4,65.6,54.5,68.7,54.5,72.5z"/>
			<path style="fill:#FFFFFF;" d="M91.5,72.5c0,3.8-3.1,6.9-6.9,6.9c-3.8,0-6.9-3.1-6.9-6.9c0-3.8,3.1-6.9,6.9-6.9
				C88.4,65.6,91.5,68.7,91.5,72.5z"/>
			<circle style="fill:#FFFFFF;" cx="121.7" cy="72.5" r="6.9"/>
		</g>
		<g>
			<path style="display:none;fill:#FFFFFF;" d="M47.9,55.2c-1.5,0-2.8-0.2-3.9-0.5c-1.1-0.3-2.1-0.8-3-1.4c-0.8-0.6-1.6-1.3-2.3-2.1
				l3.5-3.9c0.9,1.2,1.9,2,2.9,2.4c1,0.4,2,0.6,2.9,0.6c0.4,0,0.7,0,1-0.1c0.3-0.1,0.5-0.2,0.6-0.3c0.1-0.1,0.2-0.4,0.2-0.6
				c0-0.2-0.1-0.4-0.2-0.6c-0.2-0.2-0.4-0.3-0.6-0.4c-0.3-0.1-0.5-0.2-0.9-0.3c-0.3-0.1-0.6-0.2-0.9-0.2c-0.3-0.1-0.5-0.1-0.8-0.2
				c-1.1-0.3-2.1-0.6-2.9-1c-0.8-0.4-1.5-0.8-2.1-1.3s-1-1.1-1.2-1.8c-0.3-0.7-0.4-1.4-0.4-2.3c0-1,0.2-1.8,0.7-2.6
				c0.4-0.8,1-1.5,1.8-2c0.7-0.6,1.6-1,2.5-1.3c0.9-0.3,1.9-0.4,2.9-0.4c1.5,0,2.7,0.1,3.7,0.4c1,0.3,1.8,0.7,2.5,1.2
				c0.7,0.5,1.2,1.1,1.7,1.8L52,41.5c-0.4-0.4-0.8-0.7-1.3-1c-0.4-0.3-0.9-0.4-1.4-0.6c-0.5-0.1-0.9-0.2-1.4-0.2
				c-0.4,0-0.8,0-1.1,0.1c-0.3,0.1-0.5,0.2-0.7,0.3c-0.2,0.1-0.3,0.3-0.3,0.6s0.1,0.4,0.3,0.6c0.2,0.2,0.5,0.3,0.8,0.4
				c0.3,0.1,0.7,0.2,1,0.3c0.3,0.1,0.6,0.1,0.8,0.2c1,0.2,2,0.4,2.8,0.8s1.6,0.7,2.3,1.2s1.1,1.1,1.5,1.8c0.3,0.7,0.5,1.6,0.5,2.6
				c0,1.4-0.4,2.6-1.1,3.6c-0.7,1-1.7,1.7-2.9,2.2C50.7,55,49.4,55.2,47.9,55.2z"/>
			<path style="display:none;fill:#FFFFFF;" d="M58.7,61.1V40H64l0.3,3.3L63.1,43c0.1-0.7,0.4-1.2,1-1.7c0.5-0.5,1.1-0.9,1.9-1.2
				s1.6-0.4,2.5-0.4c1.2,0,2.3,0.3,3.3,1c1,0.7,1.7,1.6,2.3,2.7s0.8,2.5,0.8,4c0,1.5-0.3,2.8-0.8,4c-0.6,1.2-1.3,2.1-2.3,2.7
				c-1,0.7-2.1,1-3.4,1c-0.8,0-1.6-0.1-2.4-0.4c-0.7-0.3-1.4-0.7-1.9-1.2c-0.5-0.5-0.8-1.1-1-1.8l1.3-0.4v9.8H58.7z M66.8,50.6
				c0.5,0,1-0.1,1.4-0.4c0.4-0.2,0.7-0.6,0.9-1.1c0.2-0.5,0.3-1,0.3-1.7c0-0.7-0.1-1.2-0.3-1.7c-0.2-0.5-0.5-0.8-0.9-1.1
				c-0.4-0.2-0.8-0.4-1.4-0.4c-0.5,0-1,0.1-1.4,0.4c-0.4,0.2-0.7,0.6-0.9,1.1c-0.2,0.5-0.3,1-0.3,1.7c0,0.7,0.1,1.2,0.3,1.7
				c0.2,0.5,0.5,0.8,0.9,1.1C65.8,50.5,66.3,50.6,66.8,50.6z"/>
			<path style="display:none;fill:#FFFFFF;" d="M84.9,55.2c-1.7,0-3.2-0.3-4.5-1c-1.2-0.7-2.2-1.6-2.9-2.8c-0.7-1.2-1-2.5-1-4
				c0-1.1,0.2-2.2,0.6-3.1s0.9-1.8,1.6-2.5c0.7-0.7,1.5-1.2,2.4-1.6c0.9-0.4,1.9-0.6,3-0.6c1.1,0,2.1,0.2,3,0.6
				c0.9,0.4,1.7,0.9,2.3,1.6c0.7,0.7,1.2,1.5,1.5,2.5s0.5,2,0.5,3.1l0,1.2H79.7L79.1,46h7.9l-0.5,0.6V46c0-0.4-0.1-0.7-0.3-0.9
				c-0.2-0.3-0.4-0.5-0.7-0.6c-0.3-0.1-0.7-0.2-1.1-0.2c-0.5,0-1,0.1-1.4,0.3c-0.4,0.2-0.7,0.5-0.9,1c-0.2,0.4-0.3,0.9-0.3,1.5
				c0,0.7,0.1,1.3,0.4,1.8c0.3,0.5,0.7,0.9,1.3,1.2c0.6,0.3,1.3,0.4,2.1,0.4c0.6,0,1-0.1,1.4-0.2c0.4-0.1,0.8-0.4,1.3-0.7l2.6,3.7
				c-0.7,0.5-1.4,1-2,1.3s-1.3,0.5-2,0.6C86.3,55.2,85.6,55.2,84.9,55.2z"/>
			<path style="display:none;fill:#FFFFFF;" d="M99.4,55.2c-1.2,0-2.4-0.3-3.3-1c-1-0.7-1.7-1.6-2.3-2.7c-0.6-1.2-0.8-2.5-0.8-4
				c0-1.5,0.3-2.9,0.8-4s1.3-2.1,2.3-2.7s2.1-1,3.4-1c0.7,0,1.3,0.1,1.8,0.3c0.6,0.2,1.1,0.4,1.5,0.8c0.4,0.3,0.8,0.7,1.1,1.2
				s0.6,0.9,0.8,1.4l-1.1,0V40h5.6v15h-5.7v-3.7l1.3,0.1c-0.2,0.5-0.4,1-0.8,1.5c-0.3,0.5-0.7,0.9-1.2,1.2c-0.4,0.3-1,0.6-1.5,0.8
				S100.1,55.2,99.4,55.2z M101,50.6c0.5,0,1-0.1,1.4-0.4c0.4-0.2,0.7-0.6,0.9-1.1c0.2-0.5,0.3-1,0.3-1.7c0-0.7-0.1-1.2-0.3-1.7
				c-0.2-0.5-0.5-0.8-0.9-1.1c-0.4-0.2-0.8-0.4-1.4-0.4c-0.5,0-1,0.1-1.4,0.4c-0.4,0.2-0.7,0.6-0.9,1.1c-0.2,0.5-0.3,1-0.3,1.7
				c0,0.7,0.1,1.2,0.3,1.7c0.2,0.5,0.5,0.8,0.9,1.1C100,50.5,100.5,50.6,101,50.6z"/>
			<path style="display:none;fill:#FFFFFF;" d="M113.1,55V34.3h5.7V55H113.1z M118.6,50.8l-2.8-3.5l6.9-7.2h7.4L118.6,50.8z
				 M123.2,55l-5-7l4-2.9l7.5,9.9H123.2z"/>
			<path style="fill:#FFFFFF;" d="M41.3,113.2V90.5h7v22.7H41.3z M43.9,104.9l0-6.1h14.8v6.1H43.9z M54.8,113.2V90.5h7v22.7H54.8z"
				/>
			<path style="fill:#FFFFFF;" d="M85.6,113.4c-2,0-3.7-0.4-5.2-1.2c-1.5-0.8-2.7-1.8-3.6-3.2c-0.9-1.3-1.3-2.9-1.3-4.6v-14h7.1
				v13.7c0,0.6,0.1,1.2,0.4,1.7c0.3,0.5,0.6,0.9,1.1,1.2c0.5,0.3,1,0.4,1.6,0.4c0.6,0,1.2-0.1,1.7-0.4s0.9-0.7,1.1-1.2
				c0.3-0.5,0.4-1,0.4-1.7V90.5h6.9v14c0,1.7-0.4,3.3-1.3,4.6c-0.9,1.3-2.1,2.4-3.6,3.2S87.5,113.4,85.6,113.4z"/>
			<path style="fill:#FFFFFF;" d="M109.3,113.2V90.5h10.5c1.6,0,3,0.2,4.2,0.7c1.1,0.5,2,1.1,2.6,1.9c0.6,0.8,0.9,1.8,0.9,2.9
				c0,1.4-0.3,2.5-0.9,3.4c-0.6,0.9-1.5,1.5-2.7,1.8l-0.1-0.6c1,0.2,1.9,0.6,2.6,1.2c0.7,0.5,1.3,1.2,1.7,1.9s0.6,1.6,0.6,2.6
				c0,1.2-0.2,2.2-0.6,3.1c-0.4,0.9-1,1.6-1.8,2.2c-0.8,0.6-1.7,1-2.7,1.3s-2.1,0.4-3.3,0.4H109.3z M115.8,99.4h2.8
				c0.5,0,0.9-0.1,1.2-0.2c0.3-0.1,0.5-0.3,0.7-0.6c0.1-0.2,0.2-0.6,0.2-0.9c0-0.5-0.2-0.9-0.5-1.2c-0.3-0.3-0.9-0.5-1.7-0.5h-2.7
				V99.4z M115.8,107.7h4.1c0.4,0,0.8-0.1,1-0.2c0.3-0.1,0.5-0.4,0.6-0.6c0.2-0.3,0.2-0.6,0.2-1.1c0-0.4-0.1-0.7-0.2-0.9
				c-0.2-0.2-0.4-0.4-0.7-0.6c-0.3-0.1-0.7-0.2-1.1-0.2h-3.9V107.7z"/>
		</g>
		<g>
			<path style="fill:#FFFFFF;" d="M48.9,56.2c-1.3,0-2.5-0.1-3.5-0.4c-1-0.3-1.9-0.7-2.7-1.3c-0.8-0.5-1.5-1.2-2.1-1.9l3.2-3.6
				c0.8,1.1,1.7,1.8,2.7,2.1s1.8,0.5,2.6,0.5c0.3,0,0.6,0,0.9-0.1c0.3-0.1,0.4-0.2,0.6-0.3c0.1-0.1,0.2-0.3,0.2-0.6
				c0-0.2-0.1-0.4-0.2-0.6c-0.1-0.2-0.3-0.3-0.6-0.4c-0.2-0.1-0.5-0.2-0.8-0.3c-0.3-0.1-0.6-0.1-0.8-0.2s-0.5-0.1-0.7-0.2
				c-1-0.2-1.9-0.5-2.7-0.9c-0.8-0.3-1.4-0.7-1.9-1.2c-0.5-0.5-0.9-1-1.1-1.6s-0.4-1.3-0.4-2.1c0-0.9,0.2-1.7,0.6-2.4
				c0.4-0.7,0.9-1.3,1.6-1.8s1.4-0.9,2.3-1.2c0.9-0.3,1.7-0.4,2.7-0.4c1.3,0,2.5,0.1,3.4,0.4c0.9,0.2,1.7,0.6,2.3,1.1s1.1,1,1.6,1.6
				l-3.2,3.1c-0.4-0.4-0.8-0.6-1.2-0.9c-0.4-0.2-0.8-0.4-1.3-0.5c-0.4-0.1-0.9-0.2-1.3-0.2c-0.4,0-0.7,0-1,0.1
				c-0.3,0.1-0.5,0.2-0.6,0.3c-0.2,0.1-0.2,0.3-0.2,0.5c0,0.2,0.1,0.4,0.3,0.5c0.2,0.1,0.4,0.3,0.7,0.4c0.3,0.1,0.6,0.2,0.9,0.2
				s0.5,0.1,0.7,0.1c0.9,0.2,1.8,0.4,2.6,0.7c0.8,0.3,1.5,0.7,2,1.1c0.6,0.4,1,1,1.3,1.7c0.3,0.7,0.5,1.5,0.5,2.4
				c0,1.3-0.3,2.4-1,3.3c-0.7,0.9-1.5,1.5-2.6,2C51.5,56,50.3,56.2,48.9,56.2z"/>
			<path style="fill:#FFFFFF;" d="M59,55.9V38.2h8c1.2,0,2.3,0.3,3.3,0.8c0.9,0.5,1.7,1.2,2.2,2.2c0.5,0.9,0.8,2,0.8,3.2
				c0,1.2-0.3,2.3-0.8,3.3c-0.5,1-1.3,1.7-2.2,2.3c-0.9,0.6-2,0.8-3.3,0.8h-2.5v5.3H59z M64.3,46h1.6c0.3,0,0.6-0.1,0.9-0.2
				c0.3-0.1,0.5-0.3,0.6-0.5c0.1-0.2,0.2-0.5,0.2-0.9c0-0.4-0.1-0.6-0.2-0.9c-0.1-0.2-0.3-0.4-0.6-0.5s-0.5-0.2-0.9-0.2h-1.6V46z"/>
			<path style="fill:#FFFFFF;" d="M76.3,55.9V38.2h13.3v4.4h-8v8.9h8.5v4.4H76.3z M78.9,49v-4.2h9.7V49H78.9z"/>
			<path style="fill:#FFFFFF;" d="M90.7,55.9l7.1-17.8h4.3l7.1,17.8h-5.4l-2.8-7.8c-0.2-0.5-0.3-1-0.5-1.3c-0.1-0.4-0.3-0.7-0.4-1.1
				c-0.1-0.3-0.2-0.7-0.3-1.1c-0.1-0.4-0.2-0.8-0.3-1.4h0.9c-0.1,0.5-0.2,1-0.3,1.4c-0.1,0.4-0.2,0.7-0.3,1.1
				c-0.1,0.3-0.2,0.7-0.4,1.1c-0.1,0.4-0.3,0.8-0.5,1.3l-2.8,7.8H90.7z M94.3,53.3l1.6-3.7h8.3l1.4,3.7H94.3z"/>
			<path style="fill:#FFFFFF;" d="M110.8,55.9V38.2h5.5v17.8H110.8z M114.6,50.9l-1.9-4.1l8.5-8.7h6.2L114.6,50.9z M122,55.9
				l-6.5-8.4l3.6-3.1l9.1,11.5H122z"/>
		</g>
	</g>
</g>
</svg>
