<svg id="eklEIZgD3QB1" xmlns="http://www.w3.org/2000/svg" xmlns:xlink="http://www.w3.org/1999/xlink" viewBox="0 0 217.6 187.8" shape-rendering="geometricPrecision" text-rendering="geometricPrecision"><style><![CDATA[#eklEIZgD3QB4_to {animation: eklEIZgD3QB4_to__to 1500ms linear infinite normal forwards}@keyframes eklEIZgD3QB4_to__to { 0% {transform: translate(129.750008px,125px)} 25% {transform: translate(129.750008px,104.927876px)} 72% {transform: translate(129.750008px,98px)} 100% {transform: translate(129.750008px,98px)}} #eklEIZgD3QB4 {animation: eklEIZgD3QB4_c_o 1500ms linear infinite normal forwards}@keyframes eklEIZgD3QB4_c_o { 0% {opacity: 0} 25% {opacity: 1} 72% {opacity: 1} 90% {opacity: 0} 100% {opacity: 0}} #eklEIZgD3QB11 {animation: eklEIZgD3QB11_c_o 1500ms linear infinite normal forwards}@keyframes eklEIZgD3QB11_c_o { 0% {opacity: 0;animation-timing-function: cubic-bezier(0.645,0.045,0.355,1)} 10% {opacity: 1;animation-timing-function: cubic-bezier(0.645,0.045,0.355,1)} 20% {opacity: 1;animation-timing-function: cubic-bezier(0.645,0.045,0.355,1)} 30% {opacity: 0} 40% {opacity: 0} 50% {opacity: 0} 60% {opacity: 1} 70% {opacity: 1} 80% {opacity: 0} 100% {opacity: 0}} #eklEIZgD3QB12 {animation: eklEIZgD3QB12_c_o 1500ms linear infinite normal forwards}@keyframes eklEIZgD3QB12_c_o { 0% {opacity: 0} 10% {opacity: 0;animation-timing-function: cubic-bezier(0.645,0.045,0.355,1)} 20% {opacity: 1;animation-timing-function: cubic-bezier(0.645,0.045,0.355,1)} 30% {opacity: 1;animation-timing-function: cubic-bezier(0.645,0.045,0.355,1)} 40% {opacity: 0} 50% {opacity: 0} 60% {opacity: 0} 70% {opacity: 1} 80% {opacity: 1} 90% {opacity: 0} 100% {opacity: 0}} #eklEIZgD3QB13 {animation: eklEIZgD3QB13_c_o 1500ms linear infinite normal forwards}@keyframes eklEIZgD3QB13_c_o { 0% {opacity: 0} 20% {opacity: 0;animation-timing-function: cubic-bezier(0.645,0.045,0.355,1)} 30% {opacity: 1;animation-timing-function: cubic-bezier(0.645,0.045,0.355,1)} 40% {opacity: 1;animation-timing-function: cubic-bezier(0.645,0.045,0.355,1)} 50% {opacity: 0} 60% {opacity: 0} 70% {opacity: 0} 80% {opacity: 1} 90% {opacity: 1} 100% {opacity: 0}}]]></style><g><g><g id="eklEIZgD3QB4_to" transform="translate(129.750008,125)"><g id="eklEIZgD3QB4" transform="translate(-129.750008,-119)" opacity="0"><path d="M77.5,162.5c34.4,7.7,70.1,7.7,104.5,0c19.9-5.2,35.6-28.3,35.6-47.2c0-13.4,0-26.8,0-40.2c0-18.9-15.7-42-35.6-47.2-34.4-7.7-70.1-7.7-104.5,0C57.6,33,41.9,56.1,41.9,75c0,13.4,0,26.8,0,40.2c0,19,15.7,42.1,35.6,47.3Z" fill="#b5abff"/><path d="M190.6,137.2l10.7,40.5c1.8,6.6-5.1,12.2-11.3,9.2l-50-25c-6.2-3.1-5.8-12,.6-14.5l39.3-15.5c4.5-1.8,9.5.7,10.7,5.3Z" fill="#b5abff"/></g></g><g><path d="M140.1,140.4c-34.4,7.7-70.1,7.7-104.5,0C15.7,135.2,0,112.2,0,93.2C0,79.8,0,66.4,0,53C0,34,15.7,11,35.6,5.8c34.4-7.7,70.1-7.7,104.5,0C160,11,175.7,34,175.7,53c0,13.4,0,26.8,0,40.2c0,19-15.7,42-35.6,47.2Z" fill="#1DC6E7"/><path d="M27,115.2L16.3,155.7c-1.8,6.6,5.1,12.2,11.3,9.2l50-25c6.2-3.1,5.8-12-.6-14.5L37.7,109.9c-4.5-1.9-9.4.6-10.7,5.3Z" fill="#1DC6E7"/></g><g><path id="eklEIZgD3QB11" d="M54.5,72.5c0,3.8-3.1,6.9-6.9,6.9s-6.9-3.1-6.9-6.9s3.1-6.9,6.9-6.9s6.9,3.1,6.9,6.9Z" opacity="0" fill="#fff"/><path id="eklEIZgD3QB12" d="M91.5,72.5c0,3.8-3.1,6.9-6.9,6.9s-6.9-3.1-6.9-6.9s3.1-6.9,6.9-6.9s6.9,3.1,6.9,6.9Z" opacity="0" fill="#fff"/><circle id="eklEIZgD3QB13" r="6.9" transform="translate(121.7 72.5)" opacity="0" fill="#fff"/></g><g><path d="M41.3,113.2v-22.7h7v22.7h-7Zm2.6-8.3v-6.1h14.8v6.1h-14.8Zm10.9,8.3v-22.7h7v22.7h-7Z" fill="#fff"/><path d="M85.6,113.4c-2,0-3.7-.4-5.2-1.2s-2.7-1.8-3.6-3.2c-.9-1.3-1.3-2.9-1.3-4.6v-14h7.1v13.7c0,.6.1,1.2.4,1.7s.6.9,1.1,1.2s1,.4,1.6.4s1.2-.1,1.7-.4.9-.7,1.1-1.2c.3-.5.4-1,.4-1.7v-13.6h6.9v14c0,1.7-.4,3.3-1.3,4.6s-2.1,2.4-3.6,3.2-3.4,1.1-5.3,1.1Z" fill="#fff"/><path d="M109.3,113.2v-22.7h10.5c1.6,0,3,.2,4.2.7c1.1.5,2,1.1,2.6,1.9s.9,1.8.9,2.9c0,1.4-.3,2.5-.9,3.4s-1.5,1.5-2.7,1.8l-.1-.6c1,.2,1.9.6,2.6,1.2.7.5,1.3,1.2,1.7,1.9s.6,1.6.6,2.6c0,1.2-.2,2.2-.6,3.1s-1,1.6-1.8,2.2-1.7,1-2.7,1.3-2.1.4-3.3.4h-11Zm6.5-13.8h2.8c.5,0,.9-.1,1.2-.2s.5-.3.7-.6c.1-.2.2-.6.2-.9c0-.5-.2-.9-.5-1.2s-.9-.5-1.7-.5h-2.7v3.4Zm0,8.3h4.1c.4,0,.8-.1,1-.2.3-.1.5-.4.6-.6.2-.3.2-.6.2-1.1c0-.4-.1-.7-.2-.9-.2-.2-.4-.4-.7-.6-.3-.1-.7-.2-1.1-.2h-3.9v3.6Z" fill="#fff"/></g><g><path d="M48.9,56.2c-1.3,0-2.5-.1-3.5-.4s-1.9-.7-2.7-1.3c-.8-.5-1.5-1.2-2.1-1.9L43.8,49c.8,1.1,1.7,1.8,2.7,2.1s1.8.5,2.6.5c.3,0,.6,0,.9-.1s.4-.2.6-.3c.1-.1.2-.3.2-.6c0-.2-.1-.4-.2-.6s-.3-.3-.6-.4c-.2-.1-.5-.2-.8-.3s-.6-.1-.8-.2-.5-.1-.7-.2c-1-.2-1.9-.5-2.7-.9-.8-.3-1.4-.7-1.9-1.2s-.9-1-1.1-1.6-.4-1.3-.4-2.1c0-.9.2-1.7.6-2.4s.9-1.3,1.6-1.8s1.4-.9,2.3-1.2s1.7-.4,2.7-.4c1.3,0,2.5.1,3.4.4.9.2,1.7.6,2.3,1.1s1.1,1,1.6,1.6l-3.2,3.1c-.4-.4-.8-.6-1.2-.9-.4-.2-.8-.4-1.3-.5-.4-.1-.9-.2-1.3-.2s-.7,0-1,.1-.5.2-.6.3c-.2.1-.2.3-.2.5s.1.4.3.5.4.3.7.4.6.2.9.2.5.1.7.1c.9.2,1.8.4,2.6.7s1.5.7,2,1.1c.6.4,1,1,1.3,1.7s.5,1.5.5,2.4c0,1.3-.3,2.4-1,3.3s-1.5,1.5-2.6,2c-1.2.8-2.4,1-3.8,1Z" fill="#fff"/><path d="M59,55.9v-17.7h8c1.2,0,2.3.3,3.3.8.9.5,1.7,1.2,2.2,2.2.5.9.8,2,.8,3.2s-.3,2.3-.8,3.3-1.3,1.7-2.2,2.3-2,.8-3.3.8h-2.5v5.3h-5.5ZM64.3,46h1.6c.3,0,.6-.1.9-.2s.5-.3.6-.5.2-.5.2-.9-.1-.6-.2-.9c-.1-.2-.3-.4-.6-.5s-.5-.2-.9-.2h-1.6v3.2Z" fill="#fff"/><path d="M76.3,55.9v-17.7h13.3v4.4h-8v8.9h8.5v4.4h-13.8ZM78.9,49v-4.2h9.7v4.2h-9.7Z" fill="#fff"/><path d="M90.7,55.9l7.1-17.8h4.3l7.1,17.8h-5.4L101,48.1c-.2-.5-.3-1-.5-1.3-.1-.4-.3-.7-.4-1.1-.1-.3-.2-.7-.3-1.1s-.2-.8-.3-1.4h.9c-.1.5-.2,1-.3,1.4s-.2.7-.3,1.1c-.1.3-.2.7-.4,1.1-.1.4-.3.8-.5,1.3l-2.8,7.8h-5.4Zm3.6-2.6l1.6-3.7h8.3l1.4,3.7h-11.3Z" fill="#fff"/><path d="M110.8,55.9v-17.7h5.5v17.8h-5.5Zm3.8-5l-1.9-4.1l8.5-8.7h6.2L114.6,50.9Zm7.4,5l-6.5-8.4l3.6-3.1l9.1,11.5h-6.2Z" fill="#fff"/></g></g></g></svg>
